Motion_pl12
version=1
nRows=15
nColumns=43
inDegrees=yes
endheader
time	pelvis_tilt	pelvis_list	pelvis_rotation	pelvis_tx	pelvis_ty	pelvis_tz	hip_flexion_r	hip_adduction_r	hip_rotation_r	knee_angle_r	ankle_angle_r	subtalar_angle_r	mtp_angle_r	hip_flexion_l	hip_adduction_l	hip_rotation_l	knee_angle_l	ankle_angle_l	subtalar_angle_l	mtp_angle_l	lumbar_extension	lumbar_bending	lumbar_rotation	neck_flexion	neck_lateral_bending	neck_rotation	arm_flex_r	arm_add_r	arm_rot_r	elbow_flex_r	pro_sup_r	wrist_flex_r	wrist_dev_r	hand_finger_flex_r	arm_flex_l	arm_add_l	arm_rot_l	elbow_flex_l	pro_sup_l	wrist_flex_l	wrist_dev_l	hand_finger_flex_l
      0.72500000	      1.26735197	    -15.01050702	     87.60703753	      0.02400317	      1.83482465	      1.21631289	     54.11341887	      1.85118463	     -1.40197578	    -52.32711314	    -14.25703951	     -8.48233687	     17.32513805	     56.39249818	     -9.42597761	     -4.71737391	    -55.27442645	    -10.29251142	     -0.10449475	     26.63372640	    -38.21559588	     -0.52633801	     -1.27806393	     16.41042516	     -1.19583153	      7.00729579	     67.18455013	    -18.97125614	     24.46298521	     66.18816078	    111.89515430	      3.22282562	      8.55507847	     12.29124315	     73.74174525	    -27.79514664	     27.32664652	     67.11295565	     97.74323126	     -6.87631855	      4.53586511	     22.72108544
      0.72750000	      1.11489741	    -14.87280630	     87.56454028	      0.02345220	      1.83168216	      1.21149001	     53.97737290	      1.63864974	     -1.47400131	    -51.56804561	    -14.71038578	     -8.39000325	     17.10331476	     56.03611351	     -9.30698108	     -5.05587351	    -54.37901289	    -10.85068684	      0.17753666	     26.55637095	    -38.38657514	     -0.57605679	     -1.26335053	     16.80930703	     -1.48802413	      6.84278003	     65.95583613	    -19.67403526	     24.48447925	     66.46935565	    111.38725577	      3.67841966	      8.39349378	     12.21767260	     72.19066620	    -27.90357828	     26.37948303	     67.40723889	     98.48475993	     -6.62924684	      4.64303578	     22.54749148
      0.73000000	      1.12602001	    -14.81869057	     87.60856884	      0.02322685	      1.82800896	      1.20677069	     53.87748096	      1.57214033	     -1.62288651	    -50.77819515	    -14.80649576	     -8.31191282	     17.05575882	     55.83303319	     -9.28990253	     -5.26372496	    -53.57715909	    -10.87773721	      0.20922933	     26.54457043	    -38.34182461	     -0.53125569	     -1.21841011	     16.53809481	     -1.50175857	      6.86536444	     64.80529260	    -20.30533813	     24.74277522	     66.41473659	    111.35123414	      3.83804158	      8.42182781	     12.25347796	     71.06669612	    -28.42451034	     26.63276515	     67.49338259	     98.60038561	     -6.40999098	      4.68318011	     22.60745813
      0.73250000	      1.11372940	    -14.74430431	     87.62677955	      0.02290371	      1.82429908	      1.20197951	     53.77013061	      1.47097560	     -1.79568376	    -50.02815570	    -14.98092365	     -8.17744343	     16.99168313	     55.59921053	     -9.26479822	     -5.50017035	    -52.78721029	    -10.98486352	      0.30580466	     26.53019733	    -38.33276028	     -0.48770765	     -1.18249711	     16.33849419	     -1.56543017	      6.87840754	     63.60642068	    -20.95493893	     24.96292471	     66.48187562	    111.27378624	      3.98715048	      8.39550803	     12.28686597	     69.88361033	    -28.95993803	     26.78061428	     67.60700284	     98.70593893	     -6.21219982	      4.70290932	     22.66544771
      0.73500000	      1.09580446	    -14.66736580	     87.65860941	      0.02264344	      1.82054479	      1.19716473	     53.65015040	      1.37615485	     -1.94323607	    -49.27770805	    -15.16055525	     -8.01673593	     16.92630210	     55.34963969	     -9.22905239	     -5.73241725	    -51.98175504	    -11.12545137	      0.43470328	     26.51614131	    -38.32686036	     -0.45801842	     -1.14937879	     16.20532530	     -1.64921506	      6.88374323	     62.39228974	    -21.61673582	     25.15757174	     66.51842195	    111.18957353	      4.12297290	      8.36685346	     12.31874690	     68.68567638	    -29.46002316	     26.89000177	     67.73307887	     98.79208430	     -6.04096774	      4.70560222	     22.72506421
      0.73750000	      1.07160056	    -14.58031920	     87.68481624	      0.02234542	      1.81674741	      1.19230205	     53.51376757	      1.27076084	     -2.08776693	    -48.54540544	    -15.34946310	     -7.82238427	     16.85751227	     55.08352569	     -9.19337982	     -5.98256996	    -51.17718403	    -11.29935148	      0.59281640	     26.50162846	    -38.33934015	     -0.42816332	     -1.11732311	     16.09425370	     -1.74377976	      6.88086991	     61.16268243	    -22.28209747	     25.32459646	     66.57174606	    111.09524547	      4.24723539	      8.33213726	     12.34643913	     67.45237025	    -29.96369214	     26.95287536	     67.86958125	     98.87388135	     -5.88696180	      4.69097745	     22.78874581
      0.74000000	      1.04420935	    -14.48262367	     87.70855967	      0.02203365	      1.81290545	      1.18741760	     53.36679009	      1.16524101	     -2.22165427	    -47.82921756	    -15.53609887	     -7.59525531	     16.78737079	     54.79901154	     -9.15662744	     -6.24412781	    -50.37825549	    -11.49783667	      0.77300189	     26.48680292	    -38.36602315	     -0.39747456	     -1.08717828	     16.00005976	     -1.84394642	      6.87280861	     59.92308344	    -22.93690186	     25.46649006	     66.61918581	    110.99753236	      4.35944658	      8.30355176	     12.36636456	     66.19739515	    -30.46062602	     26.97715519	     68.01490037	     98.95677881	     -5.74706769	      4.65834639	     22.85752298
      0.74250000	      0.76388820	    -13.95981630	     87.52859557	      0.02144164	      1.80994230	      1.18195545	     52.77245598	      0.87502224	     -2.15600829	    -47.22661080	    -15.22792356	     -6.48716436	     16.23706573	     53.90375092	     -9.06563617	     -6.93310898	    -49.51076311	    -11.80014925	      1.28651395	     26.34834444	    -38.91853515	     -0.58294231	     -1.21056471	     16.29748292	     -2.15310774	      6.87044455	     58.76183981	    -23.43854083	     25.51905886	     66.73202161	    110.66375621	      4.70284658	      8.50771710	     11.83867125	     64.26651370	    -30.52998454	     25.15148997	     68.42229702	    100.76053404	     -4.74617237	      4.56596367	     23.28530527
      0.74500000	      0.78935024	    -13.93380717	     87.59444680	      0.02122860	      1.80578533	      1.17713335	     52.68092449	      0.83843664	     -2.25204984	    -46.50625200	    -15.43335221	     -6.37651882	     16.16995729	     53.71067494	     -9.02869187	     -7.08311928	    -48.71247468	    -11.90763627	      1.36568237	     26.33705963	    -38.83258585	     -0.51111242	     -1.16725869	     16.12982363	     -2.19194468	      6.89918444	     57.53597311	    -24.07100203	     25.70453827	     66.62964498	    110.63132532	      4.80672309	      8.51665387	     11.85198793	     63.10878539	    -31.06786016	     25.40411046	     68.46481683	    100.80395798	     -4.58711746	      4.55126776	     23.35273189
      0.74750000	      0.80386502	    -13.87563738	     87.64979844	      0.02099926	      1.80157620	      1.17218456	     52.55819261	      0.77869489	     -2.37421675	    -45.82241111	    -15.65784079	     -6.20716780	     16.10195004	     53.48189955	     -9.00591540	     -7.29907765	    -47.94645487	    -12.09991305	      1.50648271	     26.32421518	    -38.77997663	     -0.44059999	     -1.13522285	     15.93852855	     -2.25249610	      6.91221896	     56.24244778	    -24.70996059	     25.83665664	     66.61598265	    110.57574798	      4.89281454	      8.50694420	     11.85261342	     61.86561847	    -31.62972487	     25.55912516	     68.57385859	    100.81888578	     -4.45752560	      4.49227352	     23.42171433
      0.75000000	      0.80806839	    -13.79742133	     87.69574288	      0.02078240	      1.79734926	      1.16721492	     52.41948806	      0.71676960	     -2.48024946	    -45.16507902	    -15.87057169	     -5.98967761	     16.03718136	     53.23064126	     -8.98984696	     -7.53379118	    -47.19131553	    -12.35022521	      1.69728220	     26.31013668	    -38.75734343	     -0.37587199	     -1.11083008	     15.77752971	     -2.33034173	      6.91516637	     54.93658409	    -25.32911085	     25.91091698	     66.61457468	    110.50819465	      4.95759846	      8.49879159	     11.83246184	     60.57721817	    -32.17086563	     25.62575830	     68.68501543	    100.81003011	     -4.35412765	      4.40564234	     23.49106989
      0.75250000	      0.80970897	    -13.70610169	     87.74202322	      0.02055437	      1.79305122	      1.16216430	     52.25803680	      0.65886748	     -2.55518038	    -44.51644922	    -16.05591194	     -5.74744023	     15.98021106	     52.95467028	     -8.97079765	     -7.76849042	    -46.43234713	    -12.62271251	      1.91252585	     26.29603248	    -38.73598157	     -0.31480810	     -1.08466205	     15.62980771	     -2.41282301	      6.91290045	     53.60406105	    -25.94294030	     25.96175443	     66.59170271	    110.43820877	      5.01498678	      8.50194575	     11.80029211	     59.25650778	    -32.69424096	     25.64428560	     68.78976800	    100.77799785	     -4.26139619	      4.30642227	     23.56403142
      0.75500000	      0.56957139	    -13.29836228	     87.59175848	      0.02022211	      1.78941797	      1.15664854	     51.77821897	      0.43848161	     -2.46542326	    -43.97379406	    -15.81233349	     -4.66468462	     15.66882468	     52.21760441	     -8.91103233	     -8.38570746	    -45.64320400	    -13.10700916	      2.58624997	     26.19337507	    -39.12043968	     -0.47301433	     -1.21910323	     15.86928872	     -2.72648268	      6.95835562	     52.20674642	    -26.28871007	     25.63717738	     66.70710828	    110.46086943	      5.36397644	      8.77431299	     10.88270669	     57.32975692	    -32.91880318	     24.18366371	     69.04060997	    101.24566288	     -3.75746489	      3.80583061	     24.03651628
      0.75750000	      0.61435815	    -13.25106998	     87.66769431	      0.01997756	      1.78486968	      1.15170660	     51.65729958	      0.43235704	     -2.51282308	    -43.33152325	    -16.00621759	     -4.54801327	     15.61506221	     51.97939760	     -8.88139197	     -8.53542420	    -44.85700677	    -13.26339005	      2.68309116	     26.18170163	    -39.03570344	     -0.36887588	     -1.17245433	     15.63636566	     -2.74898995	      6.96956516	     50.92977573	    -26.93391677	     25.76549699	     66.59147296	    110.40593533	      5.46619358	      8.76705119	     10.86402057	     56.10213814	    -33.47195352	     24.39149071	     69.06651052	    101.24713681	     -3.62236665	      3.79519983	     24.10995579
      0.76000000	      0.63958499	    -13.16692140	     87.72458395	      0.01976473	      1.78029931	      1.14666565	     51.49335855	      0.41463630	     -2.58426638	    -42.69955632	    -16.20961311	     -4.37290861	     15.56629148	     51.71161007	     -8.85913654	     -8.71591811	    -44.10802569	    -13.52569517	      2.85348693	     26.16790451	    -38.99384088	     -0.29347402	     -1.12727110	     15.38843422	     -2.79093419	      6.96520023	     49.57616185	    -27.58271786	     25.79791202	     66.56158872	    110.31388824	      5.52663933	      8.72987227	     10.82571239	     54.78167405	    -34.01537057	     24.45938619	     69.15934243	    101.17511277	     -3.51877359	      3.72682413	     24.18301600
